<?xml version="1.0" standalone="no"?>
<!DOCTYPE svg PUBLIC "-//W3C//DTD SVG 20010904//EN"
 "http://www.w3.org/TR/2001/REC-SVG-20010904/DTD/svg10.dtd">
<svg version="1.0" xmlns="http://www.w3.org/2000/svg"
 width="700.000000pt" height="700.000000pt" viewBox="0 0 700.000000 700.000000"
 preserveAspectRatio="xMidYMid meet">
<metadata>
Created by potrace 1.14, written by Peter Selinger 2001-2017
</metadata>
<g transform="translate(0.000000,700.000000) scale(0.100000,-0.100000)"
fill="#000000" stroke="none">
<path d="M2744 5675 c-13 -34 90 -146 209 -227 32 -22 57 -41 55 -43 -2 -1
-48 -21 -103 -44 -55 -24 -179 -84 -275 -134 -429 -223 -652 -329 -722 -342
-29 -6 -59 -26 -53 -36 10 -16 86 -51 155 -71 108 -31 207 -38 355 -26 68 5
69 5 30 -7 -22 -8 -48 -14 -57 -14 -19 -1 -248 -233 -248 -252 0 -23 35 -31
101 -26 55 5 85 14 135 41 35 20 64 34 64 33 0 -2 -19 -17 -43 -34 -75 -54
-189 -74 -248 -43 -25 14 -49 6 -49 -14 0 -25 50 -44 115 -44 58 0 139 22 197
54 15 8 29 11 31 7 3 -5 5 -66 5 -138 0 -71 3 -145 6 -162 6 -31 -5 -45 -18
-24 -13 21 -58 18 -87 -6 -52 -44 -70 -130 -68 -322 1 -91 5 -181 10 -200 4
-20 9 -52 12 -71 6 -49 38 -173 47 -185 4 -5 11 -25 15 -42 6 -29 3 -34 -20
-45 -25 -11 -26 -15 -22 -67 21 -235 192 -617 319 -710 88 -65 275 -102 627
-126 52 -3 102 -10 111 -15 26 -14 136 -282 124 -301 -2 -4 -43 -33 -91 -66
-118 -79 -230 -190 -239 -238 -10 -56 30 -165 112 -305 19 -32 34 -60 34 -63
0 -3 -18 -27 -40 -53 -23 -27 -54 -76 -70 -108 -27 -54 -30 -69 -30 -157 0
-53 -2 -104 -5 -111 -3 -8 -55 -57 -115 -109 -117 -100 -376 -359 -500 -498
-41 -47 -82 -92 -90 -100 -8 -9 -48 -57 -89 -106 -41 -50 -80 -97 -88 -106
-11 -14 153 -15 1760 -16 1190 -1 1774 2 1778 9 8 13 -25 133 -121 438 -84
268 -205 539 -336 757 -42 70 -83 133 -90 141 -27 27 -37 57 -40 126 -5 118
-22 151 -138 268 -33 34 -48 58 -52 85 -7 47 -45 274 -48 288 -2 6 -6 28 -11
50 -21 108 -64 132 -290 159 -22 3 -82 5 -133 6 l-93 0 -21 47 c-33 75 -30
153 10 237 68 143 96 178 411 502 271 278 302 316 380 471 102 205 144 425
116 616 -7 45 -10 85 -8 89 2 4 27 14 55 23 65 19 78 30 78 69 0 58 -92 227
-212 390 -32 43 -56 81 -54 85 4 6 40 84 88 191 76 168 -21 169 -105 1 -18
-36 -37 -67 -43 -67 -9 -2 -29 54 -39 109 -11 58 -68 224 -93 270 -41 76 -47
69 -117 -132 -4 -9 -17 -2 -46 24 -161 146 -505 286 -804 330 -23 3 -52 8 -65
10 -14 3 -56 8 -93 11 -37 3 -77 7 -88 9 -11 2 -80 7 -152 10 -318 14 -446 21
-522 30 -22 2 -74 7 -115 10 -41 4 -91 8 -110 11 -106 15 -130 15 -136 -1z
m151 -805 c-3 -5 -12 -10 -18 -10 -7 0 -6 4 3 10 19 12 23 12 15 0z m1415 -4
c0 -2 -8 -10 -17 -17 -16 -13 -17 -12 -4 4 13 16 21 21 21 13z m-450 -90 c0
-2 -51 -25 -112 -51 -62 -26 -122 -51 -133 -56 -11 -5 -56 -22 -100 -39 -88
-32 -88 -33 7 -31 36 1 69 -2 72 -7 3 -5 8 -27 11 -48 3 -22 8 -44 10 -51 2
-6 7 -38 11 -70 16 -139 31 -186 72 -223 22 -19 66 -59 98 -88 55 -51 54 -50
-21 10 -126 100 -115 93 -115 71 0 -23 48 -75 155 -168 44 -38 83 -73 86 -78
6 -9 0 -89 -7 -97 -3 -2 -71 -5 -152 -6 -81 -1 -259 -5 -397 -8 -164 -5 -246
-3 -240 3 6 6 69 11 140 12 72 0 133 3 137 5 4 3 1 22 -7 44 -15 44 -15 42
-15 69 0 10 -7 22 -16 25 -9 3 -89 9 -178 12 l-161 5 -35 34 c-59 56 -113 79
-174 72 -76 -8 -120 -39 -156 -112 -16 -33 -36 -84 -43 -113 -16 -63 -28 -76
-60 -68 -22 5 -27 17 -45 93 -52 220 -68 395 -48 546 10 84 21 105 80 164 66
66 91 69 38 6 -59 -73 -77 -103 -61 -104 71 -6 209 55 327 146 39 30 72 52 72
49 0 -20 -159 -135 -235 -170 -39 -18 -54 -29 -46 -37 23 -23 162 55 290 162
l57 47 63 -6 c126 -12 517 -2 581 15 8 2 40 6 70 10 30 3 80 12 110 19 65 16
70 17 70 12z m-1506 -672 c30 -12 74 -106 92 -198 40 -206 53 -451 27 -504
-16 -34 -88 -102 -107 -102 -15 0 -55 105 -71 185 -52 263 -46 509 15 595 24
33 22 32 44 24z m516 -46 c14 -7 35 -20 47 -29 l23 -17 -27 -7 c-45 -11 -53
-23 -53 -86 l0 -59 33 -1 c17 -1 58 -1 89 0 l57 1 23 -72 c20 -64 23 -93 23
-238 -1 -186 -12 -228 -75 -287 -33 -31 -95 -54 -128 -48 -9 2 -22 4 -28 4
-25 2 -97 61 -125 102 -16 24 -41 82 -55 128 -25 80 -25 86 -10 118 23 48 20
77 -10 113 -26 30 -27 35 -21 118 7 107 27 167 73 221 49 57 103 70 164 39z
m1685 -273 c95 -55 174 -216 169 -346 -4 -110 -16 -162 -61 -249 -97 -191
-245 -302 -400 -301 l-62 0 -45 -57 c-24 -32 -84 -96 -134 -144 -73 -69 -104
-91 -164 -116 -149 -62 -406 -125 -568 -140 -132 -11 -356 -5 -440 12 -13 3
-41 8 -62 11 -152 23 -267 119 -354 297 -65 132 -118 302 -128 408 -5 49 -3
55 26 81 16 16 36 29 43 29 21 0 105 80 124 119 30 59 43 144 36 232 -6 68 -5
79 9 79 8 0 20 -8 25 -18 9 -18 13 -32 27 -107 34 -193 113 -328 213 -367 58
-23 161 -17 201 12 88 63 125 163 135 370 1 36 3 70 4 75 1 10 156 15 576 19
l160 1 2 -120 c0 -66 1 -125 2 -131 1 -8 39 0 106 22 102 33 159 44 125 25 -8
-5 -46 -19 -85 -32 -193 -62 -205 -92 -16 -41 119 32 130 38 136 61 31 136
143 300 230 337 43 18 120 9 170 -21z m-780 -2315 c-3 -5 -12 -10 -18 -10 -7
0 -6 4 3 10 19 12 23 12 15 0z"/>
<path d="M2834 4379 c-56 -7 -72 -14 -156 -68 -88 -55 -86 -77 7 -104 64 -18
90 -15 211 27 278 96 336 125 292 141 -21 8 -299 11 -354 4z"/>
<path d="M2874 3804 c-9 -49 3 -168 26 -260 22 -85 45 -121 66 -103 15 12 12
132 -5 218 -32 160 -72 226 -87 145z"/>
<path d="M4446 3661 c-48 -32 -97 -116 -152 -258 -31 -81 -35 -102 -41 -204
-6 -98 7 -124 55 -113 103 24 231 163 277 299 36 108 10 240 -54 278 -37 22
-49 21 -85 -2z"/>
<path d="M3254 3395 c-17 -18 -48 -45 -69 -59 -21 -14 -33 -26 -27 -26 16 0
110 77 122 100 15 28 10 25 -26 -15z"/>
<path d="M3997 3357 c-38 -12 -67 -26 -65 -32 3 -10 7 -11 48 -2 73 15 121 31
131 43 18 21 -33 17 -114 -9z"/>
</g>
</svg>
